<svg width="33" height="38" viewBox="0 0 33 38" fill="none" xmlns="http://www.w3.org/2000/svg">
<g style="mix-blend-mode:multiply">
<path d="M16.8583 38.0002C25.7738 38.0002 33.0012 35.6105 33.0012 32.6627C33.0012 29.7149 25.7738 27.3252 16.8583 27.3252C7.94277 27.3252 0.715332 29.7149 0.715332 32.6627C0.715332 35.6105 7.94277 38.0002 16.8583 38.0002Z" fill="#9D9D9C"/>
</g>
<path d="M30.4402 28.7426C30.4402 31.1638 24.341 33.1258 16.8172 33.1258C9.29348 33.1258 3.19434 31.1626 3.19434 28.7426V25.3594H30.4402V28.7426Z" fill="#E1A975"/>
<g style="mix-blend-mode:multiply">
<path d="M18.7877 31.2096C11.264 31.2096 5.16484 29.2464 5.16484 26.8264V25.3594H3.19312V28.7426C3.19312 31.1638 9.29226 33.1258 16.816 33.1258C23.9392 33.1258 29.7841 31.3661 30.3869 29.1255C27.9867 30.3763 23.6898 31.2096 18.7877 31.2096Z" fill="#C6C6C6"/>
</g>
<path d="M30.4399 25.3579C30.4399 27.7791 24.3408 29.7411 16.817 29.7411C9.29323 29.7411 3.19409 27.7779 3.19409 25.3579C3.19409 22.9378 9.29323 20.9746 16.817 20.9746C24.3408 20.9746 30.4399 22.9378 30.4399 25.3579Z" fill="#FFE8BF"/>
<path d="M29.208 25.0428C29.208 27.0862 23.6608 28.7428 16.8172 28.7428C9.97372 28.7428 4.42651 27.0862 4.42651 25.0428C4.42651 22.9994 9.97372 21.3428 16.8172 21.3428C23.6608 21.3428 29.208 22.9994 29.208 25.0428Z" fill="#D28C2C"/>
<path d="M26.8236 25.0715C26.8236 26.7217 22.3439 28.0589 16.8173 28.0589C11.2907 28.0589 6.81104 26.7217 6.81104 25.0715C6.81104 23.4212 11.2919 22.084 16.8173 22.084C22.3427 22.084 26.8236 23.4212 26.8236 25.0715Z" fill="#FFDD84"/>
<path d="M19.7318 25.144C19.2912 24.9761 18.5347 24.8158 17.4212 24.6542C17.3716 24.6466 17.3026 24.6364 17.2106 24.6236C16.2992 24.4926 15.7763 24.3463 15.7763 24.2241C15.7763 24.1452 15.8441 24.0893 15.9917 24.0447C16.0837 24.018 16.2035 23.9964 16.3476 23.9849C16.5195 24.0193 16.6877 24.0778 16.8463 24.158L17.1053 24.2903L18.0809 24.3221L20.2523 23.9391L20.0901 23.7915C19.8468 23.5701 19.4026 23.3996 18.7708 23.2839C18.4537 23.2266 18.093 23.1846 17.6984 23.1592V22.8843L16.7155 22.8525L14.653 22.8665V23.1388C14.6179 23.1414 14.5804 23.1452 14.5393 23.149L14.4993 23.1528C14.4388 23.1579 14.3892 23.163 14.3408 23.1681C14.2936 23.1732 14.2439 23.1783 14.1858 23.1859C14.1737 23.1872 14.1604 23.1897 14.1483 23.191C14.0926 23.1986 14.0454 23.2037 14.0031 23.2101H13.9994C13.9595 23.2164 13.9195 23.2228 13.8796 23.2292C13.8723 23.2292 13.8651 23.2317 13.8578 23.233L13.8445 23.2355C13.8167 23.2406 13.79 23.2444 13.7634 23.2495C13.7525 23.2508 13.7404 23.2533 13.7295 23.2559H13.721C13.6968 23.2622 13.6726 23.2661 13.6496 23.2711C13.6351 23.2737 13.6206 23.2762 13.6048 23.28C13.5818 23.2851 13.5588 23.289 13.5346 23.294C13.5201 23.2966 13.5068 23.2991 13.4935 23.303C13.4705 23.308 13.4475 23.3131 13.4245 23.3182L13.4124 23.3208C13.4039 23.322 13.3942 23.3246 13.3858 23.3271C13.3591 23.3335 13.3337 23.3398 13.3083 23.3462L13.2817 23.3526C13.2478 23.3615 13.2139 23.3691 13.18 23.378L13.1534 23.3857C13.1292 23.392 13.105 23.3984 13.0807 23.406L13.0711 23.4086C13.0481 23.4149 13.0251 23.4213 13.0033 23.4289C12.9682 23.4404 12.9331 23.4505 12.8907 23.4658L12.8677 23.4734C12.8314 23.4862 12.7975 23.4976 12.7648 23.5103L12.7479 23.5167C12.7176 23.5282 12.6886 23.5396 12.6607 23.5511L12.645 23.5574C12.616 23.5701 12.5869 23.5829 12.5566 23.5969L12.5385 23.6058C12.5058 23.621 12.4792 23.6338 12.455 23.6465H12.4526C12.4283 23.6605 12.4053 23.6745 12.3787 23.6897C12.3727 23.6936 12.3654 23.6974 12.3594 23.7012C12.3376 23.7139 12.317 23.7266 12.2976 23.7394L12.2892 23.7445C12.2698 23.7585 12.2492 23.7724 12.2286 23.789C12.2238 23.7928 12.2202 23.7954 12.2153 23.7992H12.2141C12.1984 23.8132 12.1838 23.8259 12.1681 23.8386L12.1584 23.8475C12.1427 23.8628 12.127 23.8781 12.1112 23.8946L12.1003 23.906C12.0882 23.9188 12.0785 23.9328 12.0677 23.9455L12.0592 23.9569C12.0471 23.9735 12.0362 23.99 12.0265 24.0066L12.0204 24.0167C12.0132 24.0307 12.0059 24.0447 11.9999 24.0587L11.9938 24.0715C11.9866 24.0893 11.9805 24.1071 11.9757 24.1236V24.13C11.9708 24.1452 11.9672 24.1605 11.9648 24.1771C11.9648 24.1821 11.9648 24.186 11.9636 24.1911C11.9611 24.2114 11.9599 24.2292 11.9599 24.2458C11.9599 24.504 12.1947 24.7254 12.6595 24.9036C13.0953 25.0715 13.9099 25.2446 15.1529 25.4354C15.2219 25.4456 15.3236 25.4609 15.4652 25.4825C16.0123 25.5639 16.6647 25.6924 16.6647 25.8464C16.6647 25.8566 16.6635 25.868 16.6611 25.8807C16.6611 25.8833 16.6599 25.8871 16.6587 25.8909C16.6562 25.8998 16.6538 25.9074 16.6502 25.9151L16.6478 25.9227C16.6429 25.9329 16.6357 25.9431 16.6284 25.952L16.6235 25.9583C16.6175 25.966 16.6102 25.9736 16.6018 25.98C16.5993 25.9825 16.5957 25.9851 16.5933 25.9876C16.5836 25.9952 16.5739 26.0029 16.563 26.0092L16.5582 26.0131C16.5461 26.0207 16.5328 26.0283 16.5158 26.0372L16.5086 26.041C16.4928 26.0487 16.4771 26.0563 16.4601 26.0627L16.4529 26.0652C16.4323 26.0729 16.4129 26.0805 16.3936 26.0869C16.3839 26.0894 16.373 26.0932 16.3633 26.0958C16.3476 26.1008 16.3318 26.1047 16.3149 26.1085L16.3052 26.111C16.2907 26.1148 16.2762 26.1174 16.2616 26.1212L16.2483 26.1238C16.2302 26.1276 16.212 26.1314 16.1902 26.1352H16.1842C16.1684 26.139 16.1503 26.1416 16.1333 26.1441L16.1164 26.1467C16.1055 26.1479 16.0934 26.1505 16.0813 26.1517L16.0619 26.1543C16.0474 26.1556 16.0329 26.1581 16.0171 26.1594H16.0063C15.9869 26.1619 15.9675 26.1645 15.9482 26.1657H15.9312C15.9167 26.1683 15.9022 26.1696 15.8864 26.1696H15.8634C15.8501 26.1721 15.8356 26.1721 15.8223 26.1734H15.7908C15.5633 26.1772 15.4592 26.1912 15.3829 26.1734C15.1469 26.1199 14.8358 26.1021 14.7426 25.9914L14.7087 25.938L14.5889 25.6899L13.8929 25.6543L11.5835 25.966L11.684 26.1645C11.8885 26.4558 12.3351 26.6823 13.0118 26.8375C13.4705 26.9431 14.0212 27.0119 14.6506 27.0411V27.2994L15.6335 27.3312L17.696 27.3172V27.0297C18.3362 26.9724 18.8882 26.8719 19.3372 26.7307C20.0707 26.5004 20.4423 26.1937 20.4435 25.8197C20.4435 25.5537 20.2075 25.3285 19.7391 25.1491L19.7318 25.144Z" fill="#402A00"/>
<path d="M19.9498 25.1738C19.4705 25.0046 18.645 24.8417 17.4249 24.6737C17.3692 24.6661 17.2942 24.6559 17.1925 24.6419C16.1443 24.4982 15.5682 24.3468 15.5682 24.2144C15.5682 24.1305 15.6505 24.0694 15.826 24.0236C16.0172 23.9727 16.2968 23.9472 16.6587 23.9472C16.9105 23.9472 17.132 23.9651 17.3184 23.9981C17.5193 24.035 17.7142 24.0974 17.8982 24.1826L18.1669 24.3086L20.492 23.9498L20.3298 23.8149C20.066 23.5961 19.5867 23.4256 18.904 23.3085C18.5457 23.2474 18.1366 23.2029 17.6851 23.1749V22.9014H15.4847V23.1698C14.7681 23.2131 14.1496 23.3047 13.6461 23.4434C12.8968 23.6482 12.5168 23.9167 12.5168 24.2424C12.5168 24.4969 12.7722 24.7157 13.2757 24.8939C13.7502 25.0618 14.635 25.2387 15.9809 25.4346L16.0003 25.4372C16.0765 25.4473 16.1891 25.4639 16.3392 25.4855H16.3465C16.9686 25.5746 17.7093 25.7133 17.7093 25.8774C17.7093 25.9868 17.6077 26.067 17.391 26.128C17.1683 26.1904 16.8584 26.2209 16.4457 26.2209C15.9797 26.2209 15.6021 26.1904 15.3213 26.1306C15.0477 26.0721 14.8625 25.9868 14.7548 25.8698L14.5841 25.684L12.1089 26.0263L12.2081 26.156C12.4308 26.4436 12.915 26.6701 13.6473 26.8266C14.1593 26.9373 14.7754 27.0085 15.4834 27.0403V27.2986H17.6839V27.0149C18.4005 26.964 19.0154 26.8673 19.5128 26.7286C20.3093 26.5059 20.7123 26.2057 20.7123 25.8367C20.7123 25.5746 20.4557 25.3519 19.9486 25.1738H19.9498Z" fill="#FFC573"/>
<path d="M19.6823 25.2348C19.2332 25.0771 18.444 24.9218 17.2675 24.759C17.2106 24.7513 17.1332 24.7412 17.0339 24.7272C15.8332 24.563 15.2244 24.39 15.2244 24.2144C15.2244 24.1024 15.3442 24.0172 15.5899 23.9523C15.8405 23.8861 16.1915 23.8531 16.6333 23.8531C16.9444 23.8531 17.2215 23.8747 17.4576 23.918C17.6996 23.9625 17.9296 24.0337 18.1402 24.133L18.2528 24.1851L20.0732 23.904L20.0054 23.848C19.7682 23.6508 19.3361 23.4968 18.7212 23.3925C18.3254 23.325 17.863 23.2792 17.3426 23.2551V22.998H15.7763V23.2525C15.0077 23.2856 14.3553 23.3734 13.8337 23.5159C13.1522 23.7017 12.8073 23.9472 12.8073 24.245C12.8073 24.4752 13.0372 24.675 13.4911 24.8353C13.9366 24.9931 14.7875 25.1623 16.0923 25.3519H16.1007C16.1818 25.3633 16.2992 25.3812 16.4505 25.4028H16.4554C17.4806 25.5478 18.001 25.7082 18.001 25.8799C18.001 26.0161 17.8643 26.1204 17.5822 26.1993C17.2978 26.2794 16.9177 26.3189 16.4203 26.3189C15.8865 26.3189 15.4471 26.2833 15.1118 26.2107C14.7766 26.1395 14.5514 26.0377 14.4243 25.899L14.3529 25.8214L12.4502 26.0848L12.4926 26.1382C12.6971 26.4029 13.1401 26.6102 13.807 26.754C14.342 26.8685 15.0029 26.9385 15.7763 26.9601V27.207H17.3426V26.9411C18.1112 26.8991 18.7575 26.8062 19.2731 26.6624C20.0018 26.4588 20.3722 26.1815 20.3722 25.8392C20.3722 25.6 20.1398 25.3977 19.6835 25.2374L19.6823 25.2348Z" fill="#FFEA0C"/>
<path d="M27.2458 23.7748C27.2458 26.1961 21.1467 28.158 13.6229 28.158C6.09914 28.158 0 26.1961 0 23.7748V20.3916H27.2458V23.7748Z" fill="#E1A975"/>
<g style="mix-blend-mode:multiply">
<path d="M15.5946 26.2419C8.07086 26.2419 1.97172 24.2786 1.97172 21.8586V20.3916H0V23.7748C0 26.1961 6.09914 28.158 13.6229 28.158C20.746 28.158 26.591 26.3996 27.1938 24.1578C24.7948 25.4085 20.4967 26.2419 15.5946 26.2419Z" fill="#C6C6C6"/>
</g>
<path d="M27.2458 20.392C27.2458 22.8133 21.1467 24.7753 13.6229 24.7753C6.09914 24.7753 0 22.8133 0 20.392C0 17.9708 6.09914 16.0088 13.6229 16.0088C21.1467 16.0088 27.2458 17.9708 27.2458 20.392Z" fill="#FFE8BF"/>
<path d="M26.0136 20.0769C26.0136 22.1203 20.4664 23.7769 13.6229 23.7769C6.77938 23.7769 1.23218 22.1203 1.23218 20.0769C1.23218 18.0336 6.77938 16.377 13.6229 16.377C20.4664 16.377 26.0136 18.0336 26.0136 20.0769Z" fill="#D28C2C"/>
<path d="M23.6305 20.1056C23.6305 21.7559 19.1508 23.0931 13.6242 23.0931C8.09756 23.0931 3.61792 21.7559 3.61792 20.1056C3.61792 18.4554 8.09756 17.1182 13.6242 17.1182C19.1508 17.1182 23.6305 18.4554 23.6305 20.1056Z" fill="#FFDD84"/>
<path d="M16.5374 20.1772C16.0968 20.0093 15.3404 19.849 14.2268 19.6874C14.1772 19.6798 14.1082 19.6708 14.0162 19.6569C13.1048 19.5258 12.5807 19.3795 12.5819 19.2573C12.5819 19.1797 12.6509 19.1225 12.7973 19.0792C12.8893 19.0525 13.0091 19.0321 13.1532 19.0194C13.3251 19.0538 13.4933 19.1123 13.6519 19.1924L13.9109 19.3248L14.8852 19.3566L17.0567 18.9736L16.8945 18.8247C16.6512 18.6033 16.207 18.4329 15.5752 18.3171C15.2593 18.2598 14.8974 18.2178 14.5028 18.1924V17.9176L13.5199 17.8857L11.4574 17.8997V18.172C11.4223 18.1746 11.386 18.1771 11.3437 18.1809L11.3037 18.1847C11.2432 18.1898 11.1936 18.1949 11.1452 18.2C11.0979 18.2051 11.0483 18.2102 10.9914 18.2178C10.9793 18.2191 10.966 18.2204 10.9539 18.2229C10.8982 18.2305 10.851 18.2356 10.8087 18.242H10.8038C10.7639 18.2484 10.7239 18.2547 10.684 18.2611C10.6767 18.2611 10.6695 18.2636 10.6622 18.2649H10.6489C10.6223 18.2713 10.5944 18.2764 10.5678 18.2802C10.5569 18.2814 10.5448 18.284 10.5339 18.2865H10.5254C10.5012 18.2929 10.477 18.2967 10.454 18.3018C10.4395 18.3043 10.425 18.3082 10.4092 18.3107C10.3862 18.3145 10.3632 18.3196 10.3402 18.3247C10.3257 18.3272 10.3124 18.3311 10.2991 18.3336C10.2761 18.3387 10.2531 18.3438 10.2313 18.3489L10.2192 18.3514C10.2095 18.354 10.201 18.3552 10.1926 18.3578C10.1659 18.3641 10.1405 18.3705 10.1151 18.3769L10.0885 18.3832C10.0546 18.3921 10.0207 18.3998 9.98802 18.4099L9.96139 18.4176C9.93718 18.4239 9.91298 18.4303 9.88877 18.4379L9.87909 18.4405C9.85609 18.4468 9.8343 18.4545 9.8113 18.4608C9.7762 18.4723 9.7411 18.4837 9.69874 18.4977L9.67574 18.5054C9.63943 18.5181 9.60554 18.5295 9.57286 18.5423L9.55591 18.5486C9.52565 18.5601 9.4966 18.5715 9.46755 18.583L9.45182 18.5894C9.42277 18.6021 9.39372 18.6148 9.36346 18.6288L9.34409 18.6377C9.31141 18.653 9.286 18.6657 9.26058 18.6784H9.25816C9.23516 18.6924 9.21095 18.7064 9.18432 18.7217C9.17827 18.7255 9.17101 18.7293 9.16496 18.7331C9.14317 18.7458 9.12259 18.7586 9.10323 18.7726L9.09475 18.7777C9.07539 18.7917 9.05481 18.8056 9.03302 18.8222C9.02939 18.826 9.02455 18.8286 9.01971 18.8324H9.01729C9.00155 18.8464 8.98703 18.8591 8.97129 18.8731L8.96161 18.882C8.94588 18.8973 8.92893 18.9125 8.91441 18.9291L8.90472 18.9405C8.89262 18.9532 8.88173 18.9672 8.87204 18.98L8.86357 18.9914C8.85147 19.008 8.84057 19.0245 8.83089 19.041L8.82605 19.0512C8.81879 19.0652 8.81152 19.0792 8.80547 19.0932L8.79942 19.1059C8.79216 19.125 8.78611 19.1416 8.78126 19.1581V19.1657C8.77521 19.181 8.77158 19.1963 8.77037 19.2128C8.77037 19.2179 8.76916 19.2217 8.76795 19.2268C8.76553 19.2472 8.76432 19.265 8.76432 19.2815C8.76432 19.5398 8.99913 19.7612 9.46392 19.9393C9.89966 20.1073 10.7143 20.2803 11.9561 20.4712C12.0251 20.4813 12.1268 20.4966 12.2684 20.5182C12.8155 20.5997 13.4679 20.7282 13.4667 20.8821C13.4667 20.8923 13.4667 20.9038 13.463 20.9165C13.463 20.919 13.463 20.9216 13.4606 20.9254C13.4582 20.9343 13.4558 20.9419 13.4521 20.9508L13.4485 20.9585C13.4437 20.9686 13.4364 20.9788 13.4304 20.9877L13.4255 20.9928C13.4195 21.0005 13.4122 21.0081 13.4037 21.0144C13.4013 21.017 13.3977 21.0195 13.3953 21.0221C13.3856 21.0297 13.3759 21.0374 13.365 21.045L13.3602 21.0475C13.3481 21.0552 13.3347 21.0628 13.3178 21.0717L13.3105 21.0755C13.2948 21.0832 13.2791 21.0908 13.2621 21.0972L13.2549 21.0997C13.2343 21.1073 13.2149 21.1137 13.1955 21.1201C13.1859 21.1226 13.175 21.1264 13.1653 21.129C13.1496 21.134 13.1338 21.1379 13.1169 21.1417L13.1072 21.1442C13.0927 21.148 13.0781 21.1506 13.0636 21.1544L13.0503 21.157C13.0321 21.1608 13.014 21.1646 12.9922 21.1684H12.9861C12.9692 21.1722 12.9523 21.1748 12.9341 21.1773L12.9172 21.1799C12.9063 21.1811 12.8942 21.1824 12.8821 21.1837L12.8627 21.1862C12.8482 21.1875 12.8336 21.19 12.8179 21.1913H12.8058C12.7864 21.1939 12.7671 21.1964 12.7477 21.1977H12.7308C12.7162 21.2002 12.7017 21.2015 12.686 21.2028H12.663C12.6497 21.2053 12.6363 21.2053 12.6218 21.2066H12.5904C12.3628 21.2104 12.2587 21.2244 12.1825 21.2066C11.9464 21.1531 11.6341 21.1366 11.5409 21.0246L11.5071 20.9712L11.3872 20.7231L10.6913 20.6875L8.38184 20.9992L8.4823 21.1977C8.68806 21.489 9.13349 21.7155 9.81009 21.8707C10.2688 21.9763 10.8196 22.0451 11.449 22.073V22.3313L12.4318 22.3631L14.4943 22.3491V22.0616C15.1346 22.0043 15.6865 21.9038 16.1356 21.7626C16.8691 21.5323 17.2407 21.2257 17.2419 20.8503C17.2419 20.5844 17.0058 20.3592 16.5374 20.1811V20.1772Z" fill="#402A00"/>
<path d="M16.7552 20.207C16.2759 20.0378 15.4504 19.8749 14.2303 19.707C14.1746 19.6993 14.0996 19.6891 13.9979 19.6751C12.9509 19.5314 12.3736 19.38 12.3736 19.2476C12.3736 19.1637 12.4559 19.1026 12.6314 19.0568C12.8226 19.0059 13.1022 18.9804 13.4642 18.9804C13.7159 18.9804 13.9386 18.9983 14.1238 19.0313C14.3247 19.0682 14.5208 19.1306 14.7036 19.2158L14.9711 19.3418L17.2962 18.983L17.134 18.8481C16.8714 18.6293 16.3909 18.4588 15.7082 18.3417C15.3499 18.2806 14.9408 18.2348 14.4894 18.2081V17.9346H12.2889V18.203C11.5723 18.2463 10.9538 18.3379 10.4503 18.4766C9.70106 18.6802 9.321 18.9499 9.321 19.2744C9.321 19.5288 9.57639 19.7477 10.0799 19.9258C10.5544 20.0937 11.4392 20.2706 12.7851 20.4665L12.8045 20.4691C12.8807 20.4793 12.9945 20.4958 13.1434 20.5174H13.1507C13.7728 20.6065 14.5148 20.7452 14.5148 20.9093C14.5148 21.02 14.4131 21.0989 14.1964 21.16C13.9737 21.2236 13.6639 21.2529 13.2511 21.2529C12.7851 21.2529 12.4075 21.2223 12.1267 21.1625C11.8531 21.104 11.6679 21.0187 11.5602 20.9017L11.3895 20.7159L8.91431 21.0582L9.01356 21.1867C9.23627 21.4755 9.72042 21.7007 10.4527 21.8585C10.9647 21.9679 11.582 22.0392 12.2901 22.0723V22.3305H14.4906V22.0468C15.2071 21.9946 15.822 21.8992 16.3207 21.7605C17.1159 21.5379 17.5202 21.2389 17.5202 20.8686C17.5202 20.6065 17.2636 20.3838 16.7564 20.2057L16.7552 20.207Z" fill="#FFC573"/>
<path d="M16.4889 20.269C16.0399 20.1112 15.2507 19.956 14.0742 19.7932C14.0173 19.7855 13.9398 19.7753 13.8406 19.7613C12.6399 19.5972 12.0311 19.4242 12.0311 19.2486C12.0311 19.1366 12.1509 19.0514 12.3966 18.9865C12.6471 18.9203 12.9982 18.8872 13.4399 18.8872C13.751 18.8872 14.0282 18.9089 14.2642 18.9521C14.5075 18.9967 14.7363 19.0679 14.9469 19.1672L15.0594 19.2193L16.8811 18.9381L16.8133 18.8822C16.5761 18.6849 16.144 18.531 15.5291 18.4267C15.1333 18.3592 14.6709 18.3134 14.1504 18.2905V18.0322H12.5854V18.2867C11.8168 18.3198 11.1644 18.4076 10.6427 18.5501C9.96129 18.7358 9.61633 18.9814 9.61633 19.2779C9.61633 19.5094 9.8463 19.7079 10.3002 19.8682C10.7456 20.026 11.5965 20.1952 12.9013 20.3848H12.9098C12.9909 20.3963 13.1083 20.4128 13.2596 20.4357H13.2644C14.2896 20.5807 14.8101 20.7411 14.8101 20.9128C14.8101 21.049 14.6733 21.1533 14.3925 21.2322C14.1081 21.3123 13.7268 21.3518 13.2293 21.3518C12.6956 21.3518 12.2562 21.3149 11.9209 21.2436C11.5856 21.1724 11.3605 21.0693 11.2334 20.9319L11.1608 20.8543L9.25806 21.1177L9.30042 21.1711C9.50498 21.4358 9.94798 21.6432 10.6149 21.7869C11.1499 21.9014 11.8108 21.9714 12.5842 21.9931V22.2399H14.1492V21.974C14.9178 21.932 15.5642 21.8391 16.0798 21.6953C16.8085 21.4917 17.1788 21.2144 17.1788 20.8721C17.1788 20.6329 16.9464 20.4306 16.4901 20.2703L16.4889 20.269Z" fill="#FFEA0C"/>
<path d="M30.4402 18.809C30.4402 21.2302 24.341 23.1922 16.8172 23.1922C9.29348 23.1922 3.19434 21.229 3.19434 18.809V15.4258H30.4402V18.809Z" fill="#E1A975"/>
<g style="mix-blend-mode:multiply">
<path d="M18.7877 21.276C11.264 21.276 5.16484 19.3128 5.16484 16.8928V15.4258H3.19312V18.809C3.19312 21.2302 9.29226 23.1922 16.816 23.1922C23.9392 23.1922 29.7841 21.4325 30.3869 19.1919C27.9867 20.4427 23.6898 21.276 18.7877 21.276Z" fill="#C6C6C6"/>
</g>
<path d="M30.4399 15.4262C30.4399 17.8475 24.3408 19.8095 16.817 19.8095C9.29323 19.8095 3.19409 17.8462 3.19409 15.4262C3.19409 13.0062 9.29323 11.043 16.817 11.043C24.3408 11.043 30.4399 13.0062 30.4399 15.4262Z" fill="#FFE8BF"/>
<path d="M29.2068 15.1092C29.2068 17.1526 23.6596 18.8092 16.816 18.8092C9.9725 18.8092 4.42529 17.1526 4.42529 15.1092C4.42529 13.0658 9.9725 11.4092 16.816 11.4092C23.6596 11.4092 29.2068 13.0658 29.2068 15.1092Z" fill="#D28C2C"/>
<path d="M16.8173 18.1263C22.3436 18.1263 26.8236 16.7888 26.8236 15.1388C26.8236 13.4889 22.3436 12.1514 16.8173 12.1514C11.291 12.1514 6.81104 13.4889 6.81104 15.1388C6.81104 16.7888 11.291 18.1263 16.8173 18.1263Z" fill="#FFDD84"/>
<path d="M19.7318 15.2107C19.2912 15.0428 18.5347 14.8825 17.4212 14.7209C17.3716 14.7133 17.3026 14.7043 17.2106 14.6904C16.2992 14.558 15.7763 14.413 15.7763 14.2908C15.7763 14.2132 15.8441 14.156 15.9917 14.1127C16.0837 14.0847 16.2035 14.0644 16.3476 14.0516C16.5195 14.086 16.6877 14.1445 16.8463 14.2247L17.1053 14.357L18.0809 14.3888L20.2523 14.0058L20.0901 13.8582C19.8468 13.6368 19.4026 13.4651 18.7708 13.3506C18.4537 13.2933 18.093 13.2513 17.6984 13.2246V12.9498L16.7155 12.918L14.653 12.932V13.2042C14.6179 13.2068 14.5804 13.2106 14.5393 13.2132L14.4993 13.217C14.4388 13.2221 14.3892 13.2271 14.3408 13.2322C14.2936 13.2373 14.2439 13.2424 14.1858 13.2501C14.1737 13.2513 14.1604 13.2526 14.1483 13.2551C14.0926 13.2615 14.0454 13.2679 14.0031 13.2742H13.9994C13.9595 13.2806 13.9195 13.287 13.8796 13.2933C13.8723 13.2933 13.8651 13.2959 13.8578 13.2971L13.8445 13.2997C13.8167 13.3035 13.79 13.3086 13.7634 13.3137C13.7525 13.3162 13.7404 13.3175 13.7295 13.32H13.721C13.6968 13.3264 13.6726 13.3302 13.6496 13.334C13.6351 13.3366 13.6206 13.3404 13.6048 13.3429C13.5818 13.3468 13.5588 13.3518 13.5346 13.3569C13.5201 13.3595 13.5068 13.362 13.4935 13.3658C13.4705 13.3709 13.4475 13.376 13.4245 13.3811L13.4124 13.3836C13.4039 13.3849 13.3942 13.3875 13.3858 13.39C13.3591 13.3964 13.3337 13.4015 13.3083 13.4091L13.2817 13.4155C13.2478 13.4244 13.2139 13.4333 13.18 13.4422L13.1534 13.4498C13.1292 13.4562 13.105 13.4625 13.0807 13.4702L13.0711 13.4727C13.0481 13.4791 13.0251 13.4854 13.0033 13.4931C12.9682 13.5033 12.9331 13.5147 12.8907 13.5287L12.8677 13.5363C12.8314 13.5491 12.7975 13.5605 12.7648 13.5732L12.7479 13.5796C12.7176 13.591 12.6886 13.6025 12.6607 13.6139L12.645 13.6203C12.616 13.633 12.5869 13.6458 12.5566 13.6597L12.5385 13.6687C12.5058 13.6839 12.4792 13.6966 12.455 13.7094H12.4526C12.4283 13.7234 12.4053 13.7361 12.3787 13.7526C12.3727 13.7564 12.3654 13.7603 12.3594 13.7641C12.3376 13.7768 12.317 13.7895 12.2976 13.8035L12.2892 13.8086C12.2698 13.8226 12.2492 13.8366 12.2286 13.8531C12.2238 13.857 12.2202 13.8595 12.2153 13.8633H12.2141C12.1984 13.8773 12.1838 13.89 12.1681 13.904L12.1584 13.9129C12.1427 13.9282 12.127 13.9435 12.1112 13.96L12.1003 13.9715C12.0882 13.9842 12.0785 13.9982 12.0677 14.0109L12.0592 14.0224C12.0471 14.0389 12.0362 14.0554 12.0265 14.072L12.0204 14.0809C12.0132 14.0949 12.0059 14.1089 11.9999 14.1229L11.9938 14.1356C11.9866 14.1534 11.9805 14.1712 11.9757 14.1878V14.1941C11.9708 14.2094 11.9672 14.2259 11.9648 14.2412C11.9648 14.2463 11.9648 14.2501 11.9636 14.2552C11.9611 14.2756 11.9599 14.2934 11.9599 14.3099C11.9599 14.5682 12.1947 14.7896 12.6595 14.9677C13.0953 15.1344 13.9099 15.3087 15.1529 15.4996C15.2219 15.5085 15.3236 15.525 15.4652 15.5466C16.0123 15.6281 16.6647 15.7566 16.6647 15.9105C16.6647 15.9207 16.6635 15.9322 16.6611 15.9449C16.6611 15.9474 16.6599 15.95 16.6587 15.9538C16.6562 15.9627 16.6538 15.9703 16.6502 15.9792L16.6478 15.9869C16.6429 15.9971 16.6357 16.0072 16.6284 16.0161L16.6235 16.0212C16.6175 16.0289 16.6102 16.0365 16.6018 16.0441C16.5993 16.0467 16.5957 16.0492 16.5933 16.0518C16.5836 16.0594 16.5739 16.067 16.563 16.0734L16.5582 16.0759C16.5461 16.0836 16.5328 16.0912 16.5158 16.1001L16.5086 16.1039C16.4928 16.1116 16.4771 16.1179 16.4601 16.1256L16.4529 16.1281C16.4323 16.1357 16.4129 16.1434 16.3936 16.1485C16.3839 16.1523 16.373 16.1548 16.3633 16.1574C16.3476 16.1625 16.3318 16.1663 16.3149 16.1701L16.3052 16.1726C16.2907 16.1765 16.2762 16.179 16.2616 16.1828L16.2483 16.1854C16.2302 16.1892 16.212 16.193 16.1902 16.1968H16.1842C16.1684 16.2006 16.1503 16.2032 16.1333 16.2057L16.1164 16.2083C16.1055 16.2095 16.0934 16.2108 16.0813 16.2134L16.0619 16.2159C16.0474 16.2172 16.0329 16.2197 16.0171 16.221H16.0063C15.9869 16.2235 15.9675 16.2261 15.9482 16.2274H15.9312C15.9167 16.2299 15.9022 16.2312 15.8864 16.2324H15.8634C15.8501 16.235 15.8356 16.235 15.8223 16.2363H15.7908C15.5633 16.2401 15.4592 16.2541 15.3829 16.2363C15.1469 16.1828 14.8358 16.165 14.7426 16.0543L14.7087 16.0009L14.5889 15.754L13.8929 15.7184L11.5835 16.0301L11.684 16.2286C11.8885 16.52 12.3351 16.7465 13.0118 16.9017C13.4705 17.0073 14.0212 17.0747 14.6506 17.104V17.3623L15.6335 17.3941L17.696 17.3801V17.0925C18.3362 17.0353 18.8882 16.9348 19.3372 16.7935C20.0707 16.5633 20.4423 16.2566 20.4435 15.8825C20.4435 15.6166 20.2075 15.3914 19.7391 15.2133L19.7318 15.2107Z" fill="#402A00"/>
<path d="M19.9498 15.2399C19.4705 15.0707 18.645 14.9078 17.4249 14.7399C17.3692 14.7322 17.2942 14.722 17.1925 14.7081C16.1443 14.5643 15.5682 14.4129 15.5682 14.2805C15.5682 14.1966 15.6505 14.1355 15.826 14.0897C16.0172 14.0388 16.2968 14.0133 16.6587 14.0133C16.9105 14.0133 17.132 14.0312 17.3184 14.0642C17.5193 14.1011 17.7142 14.1635 17.8982 14.2487L18.1669 14.3747L20.492 14.0159L20.3298 13.8823C20.066 13.6635 19.5867 13.493 18.904 13.3759C18.5457 13.3148 18.1366 13.2703 17.6851 13.2423V12.9688H15.4847V13.2372C14.7681 13.2805 14.1496 13.3721 13.6461 13.5095C12.8968 13.7143 12.5168 13.9828 12.5168 14.3085C12.5168 14.5617 12.7722 14.7818 13.2757 14.96C13.7502 15.1279 14.635 15.3048 15.9809 15.5007L16.0003 15.5033C16.0765 15.5134 16.1891 15.53 16.3392 15.5516H16.3465C16.9686 15.6407 17.7093 15.7794 17.7093 15.9435C17.7093 16.0529 17.6077 16.1331 17.391 16.1942C17.1683 16.2578 16.8584 16.2883 16.4457 16.2883C15.9797 16.2883 15.6021 16.2578 15.3213 16.198C15.0477 16.1394 14.8625 16.0542 14.7548 15.9371L14.5841 15.7514L12.1089 16.0936L12.2081 16.2221C12.4308 16.5097 12.915 16.7362 13.6473 16.8927C14.1593 17.0021 14.7754 17.0734 15.4834 17.1052V17.3634H17.6839V17.0797C18.4005 17.0288 19.0154 16.9321 19.5128 16.7934C20.3093 16.5708 20.7123 16.2718 20.7123 15.9015C20.7123 15.6394 20.4557 15.4168 19.9486 15.2386L19.9498 15.2399Z" fill="#FFC573"/>
<path d="M19.6823 15.3012C19.2332 15.1434 18.444 14.9882 17.2675 14.8253C17.2106 14.8177 17.1332 14.8062 17.0339 14.7922C15.8332 14.6268 15.2244 14.455 15.2244 14.2795C15.2244 14.1675 15.3442 14.0822 15.5899 14.0174C15.8405 13.9512 16.1915 13.9168 16.6333 13.9168C16.9444 13.9168 17.2215 13.9385 17.4576 13.9817C17.6996 14.0263 17.9296 14.0988 18.1402 14.1968L18.2528 14.2489L20.0732 13.9677L20.0054 13.9117C19.7682 13.7145 19.3361 13.5606 18.7212 13.455C18.3254 13.3875 17.863 13.3417 17.3426 13.3188V13.0605H15.7763V13.315C15.0077 13.3481 14.3553 13.4359 13.8337 13.5771C13.1522 13.7629 12.8073 14.0084 12.8073 14.3062C12.8073 14.5365 13.0372 14.7362 13.4911 14.8965C13.9366 15.0543 14.7875 15.2235 16.0923 15.4131H16.1007C16.1818 15.4246 16.2992 15.4424 16.4505 15.464H16.4554C17.4806 15.6091 18.001 15.7694 18.001 15.9411C18.001 16.0773 17.8643 16.1816 17.5822 16.2605C17.2978 16.3407 16.9177 16.3801 16.4203 16.3801C15.8865 16.3801 15.4471 16.3445 15.1118 16.272C14.7766 16.2007 14.5514 16.0976 14.4243 15.9602L14.3529 15.8826L12.4502 16.146L12.4926 16.2007C12.6971 16.4654 13.1401 16.6727 13.807 16.8165C14.342 16.931 15.0029 17.001 15.7763 17.0226V17.2695H17.3426V17.0036C18.1112 16.9616 18.7575 16.8687 19.2731 16.7249C20.0018 16.5213 20.3722 16.244 20.3722 15.9017C20.3722 15.6625 20.1398 15.4602 19.6835 15.2999L19.6823 15.3012Z" fill="#FFEA0C"/>
<path d="M27.2458 13.8431C27.2458 16.2644 21.1467 18.2264 13.6229 18.2264C6.09914 18.2264 0 16.2631 0 13.8431V10.46H27.2458V13.8431Z" fill="#E1A975"/>
<g style="mix-blend-mode:multiply">
<path d="M15.5946 16.3083C8.07086 16.3083 1.97172 14.3463 1.97172 11.925V10.458H0V13.8412C0 16.2625 6.09914 18.2244 13.6229 18.2244C20.746 18.2244 26.591 16.4648 27.1938 14.2242C24.7948 15.4749 20.4967 16.3083 15.5946 16.3083Z" fill="#C6C6C6"/>
</g>
<path d="M27.2458 10.4584C27.2458 12.8797 21.1467 14.8417 13.6229 14.8417C6.09914 14.8417 0 12.8797 0 10.4584C0 8.03716 6.09914 6.0752 13.6229 6.0752C21.1467 6.0752 27.2458 8.03843 27.2458 10.4584Z" fill="#FFE8BF"/>
<path d="M26.0136 10.1434C26.0136 12.1867 20.4664 13.8433 13.6229 13.8433C6.77938 13.8433 1.23218 12.1867 1.23218 10.1434C1.23218 8.09996 6.77938 6.44336 13.6229 6.44336C20.4664 6.44336 26.0136 8.09996 26.0136 10.1434Z" fill="#D28C2C"/>
<path d="M23.6305 10.172C23.6305 11.8223 19.1508 13.1595 13.6242 13.1595C8.09756 13.1595 3.61792 11.8223 3.61792 10.172C3.61792 8.52181 8.09756 7.18457 13.6242 7.18457C19.1508 7.18457 23.6305 8.52181 23.6305 10.172Z" fill="#FFDD84"/>
<path d="M30.4402 7.76794C30.4402 10.1892 24.341 12.1512 16.8172 12.1512C9.29348 12.1512 3.19434 10.188 3.19434 7.76794V4.38477H30.4402V7.76794Z" fill="#E1A975"/>
<g style="mix-blend-mode:multiply">
<path d="M18.7877 10.2331C11.264 10.2331 5.16484 8.27111 5.16484 5.84983V4.38281H3.19312V7.76599C3.19312 10.1873 9.29226 12.1492 16.816 12.1492C23.9392 12.1492 29.7841 10.3908 30.3869 8.14897C27.9867 9.39969 23.6898 10.2331 18.7877 10.2331Z" fill="#C6C6C6"/>
</g>
<path d="M30.4399 4.38324C30.4399 6.80453 24.3408 8.76649 16.817 8.76649C9.29323 8.76649 3.19409 6.80453 3.19409 4.38324C3.19409 1.96196 9.29323 0 16.817 0C24.3408 0 30.4399 1.96324 30.4399 4.38324Z" fill="#FFE8BF"/>
<path d="M29.2068 4.06816C29.2068 6.11155 23.6596 7.76815 16.816 7.76815C9.9725 7.76815 4.42529 6.11155 4.42529 4.06816C4.42529 2.02476 9.97371 0.368164 16.8172 0.368164C23.6608 0.368164 29.208 2.02476 29.208 4.06816H29.2068Z" fill="#D28C2C"/>
<path d="M26.8236 4.09685C26.8236 5.74709 22.3439 7.08433 16.8173 7.08433C11.2907 7.08433 6.81104 5.74709 6.81104 4.09685C6.81104 2.44661 11.2919 1.10938 16.8173 1.10938C22.3427 1.10938 26.8236 2.44661 26.8236 4.09685Z" fill="#FFDD84"/>
</svg>
