<svg width="92" height="92" viewBox="0 0 92 92" fill="none" xmlns="http://www.w3.org/2000/svg">
<path d="M77.625 0L14.375 0C6.43591 0 0 6.43591 0 14.375L0 77.625C0 85.5641 6.43591 92 14.375 92H77.625C85.5641 92 92 85.5641 92 77.625V14.375C92 6.43591 85.5641 0 77.625 0Z" fill="#1877F2"/>
<path d="M69 46C69 33.35 58.65 23 46 23C33.35 23 23 33.35 23 46C23 57.5 31.3375 66.9875 42.2625 68.7125V52.6125H36.5125V46H42.2625V40.825C42.2625 35.075 45.7125 31.9125 50.8875 31.9125C53.475 31.9125 56.0625 32.4875 56.0625 32.4875V38.2375H53.1875C50.3125 38.2375 49.45 39.9625 49.45 41.6875V46H55.775L54.625 52.6125H49.1625V69C60.6625 67.275 69 57.5 69 46Z" fill="white"/>
</svg>
