<svg width="92" height="92" viewBox="0 0 92 92" fill="none" xmlns="http://www.w3.org/2000/svg">
<path d="M77.625 0L14.375 0C6.43591 0 0 6.43591 0 14.375L0 77.625C0 85.5641 6.43591 92 14.375 92H77.625C85.5641 92 92 85.5641 92 77.625V14.375C92 6.43591 85.5641 0 77.625 0Z" fill="#FE724C"/>
<path d="M45.9999 26.4502C52.3249 26.4502 53.1874 26.4502 55.7749 26.4502C58.0749 26.4502 59.2249 27.0252 60.0874 27.3127C61.2374 27.8877 62.0999 28.1752 62.9624 29.0377C63.8249 29.9002 64.3999 30.7627 64.6874 31.9127C64.9749 32.7752 65.2624 33.9252 65.5499 36.2252C65.5499 38.8127 65.5499 39.3877 65.5499 46.0002C65.5499 52.6127 65.5499 53.1877 65.5499 55.7752C65.5499 58.0752 64.9749 59.2252 64.6874 60.0877C64.1124 61.2377 63.8249 62.1002 62.9624 62.9627C62.0999 63.8252 61.2374 64.4002 60.0874 64.6877C59.2249 64.9752 58.0749 65.2627 55.7749 65.5502C53.1874 65.5502 52.6124 65.5502 45.9999 65.5502C39.3874 65.5502 38.8125 65.5502 36.2249 65.5502C33.9249 65.5502 32.775 64.9752 31.9125 64.6877C30.7625 64.1127 29.9 63.8252 29.0375 62.9627C28.175 62.1002 27.6 61.2377 27.3125 60.0877C27.025 59.2252 26.7375 58.0752 26.45 55.7752C26.45 53.1877 26.45 52.6127 26.45 46.0002C26.45 39.3877 26.45 38.8127 26.45 36.2252C26.45 33.9252 27.025 32.7752 27.3125 31.9127C27.8875 30.7627 28.175 29.9002 29.0375 29.0377C29.9 28.1752 30.7625 27.6002 31.9125 27.3127C32.775 27.0252 33.9249 26.7377 36.2249 26.4502C38.8125 26.4502 39.6749 26.4502 45.9999 26.4502ZM45.9999 22.1377C39.3874 22.1377 38.8125 22.1377 36.2249 22.1377C33.6375 22.1377 31.9125 22.7127 30.475 23.2877C29.0375 23.8627 27.6 24.7252 26.1625 26.1627C24.725 27.6002 24.15 28.7502 23.2875 30.4752C22.7125 31.9127 22.425 33.6377 22.1375 36.2252C22.1375 38.8127 22.1375 39.6752 22.1375 46.0002C22.1375 52.6127 22.1375 53.1877 22.1375 55.7752C22.1375 58.3627 22.7125 60.0877 23.2875 61.5252C23.8625 62.9627 24.725 64.4002 26.1625 65.8377C27.6 67.2752 28.75 67.8502 30.475 68.7127C31.9125 69.2877 33.6375 69.5752 36.2249 69.8627C38.8125 69.8627 39.6749 69.8627 45.9999 69.8627C52.3249 69.8627 53.1874 69.8627 55.7749 69.8627C58.3624 69.8627 60.0874 69.2877 61.5249 68.7127C62.9624 68.1377 64.3999 67.2752 65.8374 65.8377C67.2749 64.4002 67.8499 63.2502 68.7124 61.5252C69.2874 60.0877 69.5749 58.3627 69.8624 55.7752C69.8624 53.1877 69.8624 52.3252 69.8624 46.0002C69.8624 39.6752 69.8624 38.8127 69.8624 36.2252C69.8624 33.6377 69.2874 31.9127 68.7124 30.4752C68.1374 29.0377 67.2749 27.6002 65.8374 26.1627C64.3999 24.7252 63.2499 24.1502 61.5249 23.2877C60.0874 22.7127 58.3624 22.4252 55.7749 22.1377C53.1874 22.1377 52.6124 22.1377 45.9999 22.1377Z" fill="white"/>
<path d="M45.9999 33.6377C39.0999 33.6377 33.6374 39.1002 33.6374 46.0002C33.6374 52.9002 39.0999 58.3627 45.9999 58.3627C52.8999 58.3627 58.3624 52.9002 58.3624 46.0002C58.3624 39.1002 52.8999 33.6377 45.9999 33.6377ZM45.9999 54.0502C41.6874 54.0502 37.9499 50.6002 37.9499 46.0002C37.9499 41.6877 41.3999 37.9502 45.9999 37.9502C50.3124 37.9502 54.0499 41.4002 54.0499 46.0002C54.0499 50.3127 50.3124 54.0502 45.9999 54.0502Z" fill="white"/>
<path d="M58.6499 36.2252C60.2378 36.2252 61.5249 34.938 61.5249 33.3502C61.5249 31.7624 60.2378 30.4752 58.6499 30.4752C57.0621 30.4752 55.7749 31.7624 55.7749 33.3502C55.7749 34.938 57.0621 36.2252 58.6499 36.2252Z" fill="white"/>
</svg>
